<mxfile host="app.diagrams.net" agent="Mozilla/5.0 (Windows NT 10.0; Win64; x64) AppleWebKit/537.36 (KHTML, like Gecko) Chrome/136.0.0.0 Safari/537.36" version="27.0.6">
  <diagram name="Страница — 1" id="vvYwB-wQn6KMuV3kbXWN">
    <mxGraphModel dx="2066" dy="1109" grid="1" gridSize="10" guides="1" tooltips="1" connect="1" arrows="1" fold="1" page="1" pageScale="1" pageWidth="1920" pageHeight="3000" math="0" shadow="0">
      <root>
        <mxCell id="0" />
        <mxCell id="1" parent="0" />
        <mxCell id="xDN-VP0Rzdzxa3bw4vOh-116" value="Начало" style="rounded=1;whiteSpace=wrap;arcSize=50;strokeWidth=2;" vertex="1" parent="1">
          <mxGeometry x="866" y="120" width="78" height="39" as="geometry" />
        </mxCell>
        <mxCell id="xDN-VP0Rzdzxa3bw4vOh-117" value="n = int((xn - x0) / h)" style="whiteSpace=wrap;strokeWidth=2;" vertex="1" parent="1">
          <mxGeometry x="802" y="209" width="205" height="54" as="geometry" />
        </mxCell>
        <mxCell id="xDN-VP0Rzdzxa3bw4vOh-118" value="xs = linespace(x0, xn, n + 1)" style="whiteSpace=wrap;strokeWidth=2;" vertex="1" parent="1">
          <mxGeometry x="775" y="313" width="260" height="78" as="geometry" />
        </mxCell>
        <mxCell id="xDN-VP0Rzdzxa3bw4vOh-119" value="ys = [0.0] * (n + 1)" style="whiteSpace=wrap;strokeWidth=2;" vertex="1" parent="1">
          <mxGeometry x="810" y="441" width="189" height="54" as="geometry" />
        </mxCell>
        <mxCell id="xDN-VP0Rzdzxa3bw4vOh-120" value="ys   = y0&#xa;i = 0" style="whiteSpace=wrap;strokeWidth=2;" vertex="1" parent="1">
          <mxGeometry x="841" y="545" width="129" height="78" as="geometry" />
        </mxCell>
        <mxCell id="xDN-VP0Rzdzxa3bw4vOh-121" value="i = 0..n" style="shape=hexagon;perimeter=hexagonPerimeter2;fixedSize=1;strokeWidth=2;whiteSpace=wrap;" vertex="1" parent="1">
          <mxGeometry x="862" y="673" width="86" height="39" as="geometry" />
        </mxCell>
        <mxCell id="xDN-VP0Rzdzxa3bw4vOh-122" value="ys    =  ys  + h * f(xs , ys )" style="whiteSpace=wrap;strokeWidth=2;" vertex="1" parent="1">
          <mxGeometry x="610" y="785" width="260" height="78" as="geometry" />
        </mxCell>
        <mxCell id="xDN-VP0Rzdzxa3bw4vOh-123" value="i = i + 1" style="whiteSpace=wrap;strokeWidth=2;" vertex="1" parent="1">
          <mxGeometry x="766" y="913" width="114" height="54" as="geometry" />
        </mxCell>
        <mxCell id="xDN-VP0Rzdzxa3bw4vOh-124" value="xs, ys" style="shape=parallelogram;perimeter=parallelogramPerimeter;fixedSize=1;strokeWidth=2;whiteSpace=wrap;" vertex="1" parent="1">
          <mxGeometry x="970" y="805" width="94" height="39" as="geometry" />
        </mxCell>
        <mxCell id="xDN-VP0Rzdzxa3bw4vOh-125" value="Конец" style="rounded=1;whiteSpace=wrap;arcSize=50;strokeWidth=2;" vertex="1" parent="1">
          <mxGeometry x="982" y="921" width="70" height="39" as="geometry" />
        </mxCell>
        <mxCell id="xDN-VP0Rzdzxa3bw4vOh-126" value="" style="curved=1;startArrow=none;endArrow=block;exitX=0.5;exitY=1;entryX=0.5;entryY=0;rounded=0;" edge="1" parent="1" source="xDN-VP0Rzdzxa3bw4vOh-116" target="xDN-VP0Rzdzxa3bw4vOh-117">
          <mxGeometry relative="1" as="geometry">
            <Array as="points" />
          </mxGeometry>
        </mxCell>
        <mxCell id="xDN-VP0Rzdzxa3bw4vOh-127" value="" style="curved=1;startArrow=none;endArrow=block;exitX=0.5;exitY=1;entryX=0.5;entryY=0;rounded=0;" edge="1" parent="1" source="xDN-VP0Rzdzxa3bw4vOh-117" target="xDN-VP0Rzdzxa3bw4vOh-118">
          <mxGeometry relative="1" as="geometry">
            <Array as="points" />
          </mxGeometry>
        </mxCell>
        <mxCell id="xDN-VP0Rzdzxa3bw4vOh-128" value="" style="curved=1;startArrow=none;endArrow=block;exitX=0.5;exitY=1;entryX=0.5;entryY=0;rounded=0;" edge="1" parent="1" source="xDN-VP0Rzdzxa3bw4vOh-118" target="xDN-VP0Rzdzxa3bw4vOh-119">
          <mxGeometry relative="1" as="geometry">
            <Array as="points" />
          </mxGeometry>
        </mxCell>
        <mxCell id="xDN-VP0Rzdzxa3bw4vOh-129" value="" style="curved=1;startArrow=none;endArrow=block;exitX=0.5;exitY=1;entryX=0.5;entryY=0;rounded=0;" edge="1" parent="1" source="xDN-VP0Rzdzxa3bw4vOh-119" target="xDN-VP0Rzdzxa3bw4vOh-120">
          <mxGeometry relative="1" as="geometry">
            <Array as="points" />
          </mxGeometry>
        </mxCell>
        <mxCell id="xDN-VP0Rzdzxa3bw4vOh-130" value="" style="curved=1;startArrow=none;endArrow=block;exitX=0.5;exitY=1;entryX=0.5;entryY=0;rounded=0;" edge="1" parent="1" source="xDN-VP0Rzdzxa3bw4vOh-120" target="xDN-VP0Rzdzxa3bw4vOh-121">
          <mxGeometry relative="1" as="geometry">
            <Array as="points" />
          </mxGeometry>
        </mxCell>
        <mxCell id="xDN-VP0Rzdzxa3bw4vOh-131" value="Да" style="curved=1;startArrow=none;endArrow=block;exitX=0;exitY=0.87;entryX=0.5;entryY=0;rounded=0;" edge="1" parent="1" source="xDN-VP0Rzdzxa3bw4vOh-121" target="xDN-VP0Rzdzxa3bw4vOh-122">
          <mxGeometry relative="1" as="geometry">
            <Array as="points">
              <mxPoint x="740" y="749" />
            </Array>
          </mxGeometry>
        </mxCell>
        <mxCell id="xDN-VP0Rzdzxa3bw4vOh-132" value="" style="curved=1;startArrow=none;endArrow=block;exitX=0.5;exitY=1;entryX=0.12;entryY=0;rounded=0;" edge="1" parent="1" source="xDN-VP0Rzdzxa3bw4vOh-122" target="xDN-VP0Rzdzxa3bw4vOh-123">
          <mxGeometry relative="1" as="geometry">
            <Array as="points">
              <mxPoint x="740" y="888" />
            </Array>
          </mxGeometry>
        </mxCell>
        <mxCell id="xDN-VP0Rzdzxa3bw4vOh-133" value="" style="curved=1;startArrow=none;endArrow=block;exitX=0.87;exitY=0;entryX=0.5;entryY=1;rounded=0;" edge="1" parent="1" source="xDN-VP0Rzdzxa3bw4vOh-123" target="xDN-VP0Rzdzxa3bw4vOh-121">
          <mxGeometry relative="1" as="geometry">
            <Array as="points">
              <mxPoint x="905" y="888" />
            </Array>
          </mxGeometry>
        </mxCell>
        <mxCell id="xDN-VP0Rzdzxa3bw4vOh-134" value="Нет" style="curved=1;startArrow=none;endArrow=block;exitX=0.95;exitY=1;entryX=0.5;entryY=-0.01;rounded=0;" edge="1" parent="1" source="xDN-VP0Rzdzxa3bw4vOh-121" target="xDN-VP0Rzdzxa3bw4vOh-124">
          <mxGeometry relative="1" as="geometry">
            <Array as="points">
              <mxPoint x="1017" y="749" />
            </Array>
          </mxGeometry>
        </mxCell>
        <mxCell id="xDN-VP0Rzdzxa3bw4vOh-135" value="" style="curved=1;startArrow=none;endArrow=block;exitX=0.5;exitY=0.99;entryX=0.5;entryY=-0.01;rounded=0;" edge="1" parent="1" source="xDN-VP0Rzdzxa3bw4vOh-124" target="xDN-VP0Rzdzxa3bw4vOh-125">
          <mxGeometry relative="1" as="geometry">
            <Array as="points" />
          </mxGeometry>
        </mxCell>
        <mxCell id="xDN-VP0Rzdzxa3bw4vOh-136" value="0" style="text;html=1;align=center;verticalAlign=middle;resizable=0;points=[];autosize=1;strokeColor=none;fillColor=none;fontSize=7;" vertex="1" parent="1">
          <mxGeometry x="882" y="572" width="30" height="20" as="geometry" />
        </mxCell>
        <mxCell id="xDN-VP0Rzdzxa3bw4vOh-137" value="i+1" style="text;html=1;align=center;verticalAlign=middle;resizable=0;points=[];autosize=1;strokeColor=none;fillColor=none;fontSize=7;" vertex="1" parent="1">
          <mxGeometry x="675" y="820" width="30" height="20" as="geometry" />
        </mxCell>
        <mxCell id="xDN-VP0Rzdzxa3bw4vOh-138" value="i" style="text;html=1;align=center;verticalAlign=middle;resizable=0;points=[];autosize=1;strokeColor=none;fillColor=none;fontSize=7;" vertex="1" parent="1">
          <mxGeometry x="710" y="820" width="30" height="20" as="geometry" />
        </mxCell>
        <mxCell id="xDN-VP0Rzdzxa3bw4vOh-139" value="i" style="text;html=1;align=center;verticalAlign=middle;resizable=0;points=[];autosize=1;strokeColor=none;fillColor=none;fontSize=7;" vertex="1" parent="1">
          <mxGeometry x="764" y="820" width="30" height="20" as="geometry" />
        </mxCell>
        <mxCell id="xDN-VP0Rzdzxa3bw4vOh-140" value="i" style="text;html=1;align=center;verticalAlign=middle;resizable=0;points=[];autosize=1;strokeColor=none;fillColor=none;fontSize=7;" vertex="1" parent="1">
          <mxGeometry x="786" y="820" width="30" height="20" as="geometry" />
        </mxCell>
      </root>
    </mxGraphModel>
  </diagram>
</mxfile>
